<?xml version="1.0" encoding="UTF-8"?>
<!DOCTYPE svg PUBLIC "-//W3C//DTD SVG 1.1//EN" "http://www.w3.org/Graphics/SVG/1.1/DTD/svg11.dtd">
<svg version="1.1" xmlns="http://www.w3.org/2000/svg" xmlns:xlink="http://www.w3.org/1999/xlink" x="0" y="0" width="100" height="100" viewBox="0, 0, 100, 100">
  <g id="Layer_1">
    <path d="M88.297,72.495 C87.584,71.614 86.107,71.015 83.78,70.663 C82.076,70.405 80.471,70.376 80.017,70.418 C79.57,70.425 76.955,70.602 76.235,70.36 C75.737,70.194 75.429,70.09 75.229,70.036 C74.384,69.579 68.026,65.536 60.686,60.825 L58.057,59.289 L59.922,59.582 C67.443,54.533 74.084,50.117 74.945,49.627 C75.143,49.57 75.448,49.461 75.942,49.285 C76.659,49.029 79.274,49.152 79.721,49.15 C80.177,49.183 81.782,49.121 83.479,48.828 C85.798,48.431 87.261,47.801 87.957,46.904 C89.385,45.062 90.414,42.02 88.62,39.507 C88.394,39.19 88.126,38.887 87.821,38.61 C87.382,38.206 86.98,37.886 86.618,37.628 L79.325,33.774 C79.325,33.774 81.674,34.009 83.98,34.648 C83.609,33.172 82.992,31.216 82.04,29.883 C81.742,29.466 81.421,29.123 81.086,28.865 C80,28.031 78.656,27.486 77.299,27.332 C75.801,27.162 74.428,27.498 73.434,28.279 C71.518,29.783 69.646,34.411 69.589,35.83 C69.559,36.564 69.635,38.312 69.604,38.817 L48.972,53.273 C43.407,49.669 38.693,46.591 36.994,45.429 C32.566,42.402 30.316,40.126 30.308,38.667 C30.297,36.771 30.778,33.624 29.212,30.716 C27.912,28.3 25.075,27.484 20.781,28.289 C19.593,28.513 18.59,29.21 17.804,30.36 C17.493,30.813 17.281,31.237 17.125,31.548 C17.096,31.607 17.069,31.662 17.042,31.712 C16.715,32.349 16.66,34.109 16.677,35.546 L17.281,40.184 C17.281,40.184 16.014,38.707 14.984,36.999 L13.403,37.899 C13.182,38.016 11.078,39.166 9.936,40.835 C8.942,42.289 9.094,43.513 9.396,44.284 C10.627,47.424 12.731,48.688 14.778,49.714 C17.009,50.831 22.085,49.78 22.967,49.541 C23.173,49.53 23.787,49.835 24.194,50.152 L24.219,50.172 L24.246,50.191 L37.776,59.267 L40.409,60.935 L38.533,60.583 L24.374,70.501 L24.347,70.52 L24.323,70.541 C23.924,70.866 23.315,71.185 23.108,71.177 C22.222,70.954 17.127,70.008 14.918,71.171 C12.892,72.237 10.814,73.544 9.647,76.708 C9.359,77.485 9.233,78.712 10.255,80.146 C11.431,81.792 13.557,82.896 13.781,83.01 L15.381,83.878 C16.375,82.149 17.613,80.648 17.613,80.648 L17.101,85.297 C17.114,86.734 17.205,88.492 17.545,89.122 C17.57,89.171 17.601,89.226 17.631,89.284 C17.792,89.593 18.013,90.013 18.332,90.458 C19.142,91.593 20.156,92.27 21.351,92.468 C25.66,93.187 28.479,92.314 29.731,89.872 C31.236,86.932 30.693,83.797 30.666,81.9 C30.645,80.442 32.848,78.122 37.213,75.004 C38.895,73.803 43.582,70.604 49.106,66.867 L70.106,80.953 C70.148,81.457 70.106,83.205 70.151,83.939 C70.239,85.356 72.202,89.945 74.149,91.411 C75.16,92.172 76.539,92.48 78.035,92.279 C79.387,92.097 80.72,91.525 81.788,90.67 C82.118,90.405 82.433,90.057 82.723,89.633 C83.647,88.281 84.226,86.313 84.567,84.83 C82.274,85.516 79.928,85.799 79.928,85.799 L87.143,81.798 C87.501,81.531 87.895,81.203 88.326,80.792 C88.626,80.508 88.887,80.199 89.107,79.879 C90.853,77.329 89.76,74.31 88.297,72.495 z" fill="#000000"/>
    <path d="M30.876,21.284 C30.927,21.284 30.979,21.28 31.031,21.272 L36.466,20.414 L31.457,28.607 C31.226,28.955 31.149,29.242 31.207,29.608 C31.276,30.048 31.694,30.37 32.2,30.37 C32.26,30.37 32.321,30.365 32.382,30.354 L40.048,29.145 C40.572,29.062 40.931,28.568 40.848,28.043 C40.777,27.592 40.368,27.252 39.898,27.252 C39.85,27.252 39.799,27.256 39.751,27.264 L34.054,28.162 L39.064,19.969 C39.295,19.622 39.371,19.336 39.314,18.97 C39.244,18.527 38.83,18.206 38.329,18.206 C38.267,18.206 38.204,18.211 38.139,18.221 L30.735,19.39 C30.21,19.473 29.851,19.967 29.934,20.492 C30.004,20.951 30.402,21.284 30.876,21.284 z" fill="#000000"/>
    <path d="M42.635,26.272 C42.635,26.852 43.163,27.343 43.787,27.343 L56.913,27.343 C57.534,27.343 58.038,26.838 58.038,26.219 C58.038,25.613 57.534,25.12 56.913,25.12 L45.992,25.12 L57.496,10.498 C57.787,10.142 57.906,9.842 57.906,9.407 C57.906,8.837 57.38,8.336 56.78,8.336 L44.054,8.336 C43.434,8.336 42.929,8.841 42.929,9.462 C42.929,10.066 43.434,10.559 44.054,10.559 L54.55,10.559 L43.047,25.181 C42.755,25.536 42.635,25.838 42.635,26.272 z" fill="#000000"/>
    <path d="M60.987,28.879 L68.573,30.518 C68.639,30.532 68.705,30.539 68.772,30.539 C69.225,30.539 69.622,30.221 69.717,29.78 C69.823,29.282 69.485,28.767 68.974,28.655 L63.337,27.439 L70.966,21.606 C71.307,21.366 71.482,21.126 71.56,20.764 C71.613,20.517 71.551,20.254 71.389,20.043 C71.234,19.842 71.002,19.699 70.734,19.642 L63.407,18.059 C63.343,18.045 63.275,18.038 63.207,18.038 C62.756,18.038 62.358,18.356 62.263,18.797 C62.21,19.048 62.259,19.303 62.404,19.517 C62.544,19.724 62.758,19.868 63.006,19.921 L68.385,21.082 L60.756,26.916 C60.416,27.156 60.242,27.395 60.164,27.758 C60.116,27.977 60.161,28.208 60.291,28.408 C60.443,28.645 60.697,28.816 60.987,28.879 z" fill="#000000"/>
  </g>
</svg>
